<svg width="110" height="110" viewBox="0 0 110 110" fill="none" xmlns="http://www.w3.org/2000/svg">
<path d="M55 0C85.3757 0 110 24.6243 110 55C110 85.3757 85.3757 110 55 110C24.6243 110 0 85.3757 0 55C0 24.6243 24.6243 0 55 0ZM37 28C32.0294 28 28 32.0294 28 37V73L28.0117 73.4629C28.2526 78.2183 32.1847 82 37 82H73L73.4629 81.9883C78.065 81.7551 81.7551 78.065 81.9883 73.4629L82 73V37C82 32.1847 78.2183 28.2526 73.4629 28.0117L73 28H37ZM77 73C77 75.2091 75.2091 77 73 77H37C34.7909 77 33 75.2091 33 73V44H77V73ZM41 72H45V68H41V72ZM47 72H51V68H47V72ZM53 72H57V68H53V72ZM59 68V72H63V68H59ZM41 66H45V62H41V66ZM47 66H51V62H47V66ZM53 66H57V62H53V66ZM59 66H63V62H59V66ZM65 66H69V62H65V66ZM41 60H45V56H41V60ZM47 60H51V56H47V60ZM53 60H57V56H53V60ZM59 60H63V56H59V60ZM65 60H69V56H65V60ZM47 54H51V50H47V54ZM53 54H57V50H53V54ZM59 54H63V50H59V54ZM65 54H69V50H65V54Z" fill="currentColor"/>
</svg>
