<svg width="59" height="65" viewBox="0 0 59 65" fill="none" xmlns="http://www.w3.org/2000/svg">
<path d="M29.5 3C44.195 3 55.9999 14.6496 56 28.8887C56 35.7046 52.9512 40.3875 47.7207 45.3311C45.0573 47.8484 41.9446 50.3249 38.4375 53.1816C35.6099 55.4849 32.5777 57.9953 29.5 60.8555C26.4223 57.9953 23.3901 55.4849 20.5625 53.1816C17.0554 50.3249 13.9427 47.8484 11.2793 45.3311C6.04884 40.3875 3 35.7046 3 28.8887C3.00012 14.6496 14.805 3 29.5 3Z" stroke="currentColor" stroke-width="6"/>
<path d="M28.4814 43.9424V29.5488H13.3008L42.8926 16.0547L28.4814 43.9424Z" fill="currentColor" stroke="currentColor"/>
</svg>
