<svg width="128" height="128" viewBox="0 0 128 128" fill="none" xmlns="http://www.w3.org/2000/svg">
<path d="M4 56.3277C4 53.3691 6.39847 50.9706 9.35714 50.9706H31.8571C34.8158 50.9706 37.2143 53.3691 37.2143 56.3277V78.8277C37.2143 81.7864 34.8158 84.1849 31.8571 84.1849H9.35714C6.39848 84.1849 4 81.7864 4 78.8277V56.3277Z" fill="currentColor"/>
<path d="M14.2736 70.5183C12.7162 68.8672 12.7162 66.2882 14.2736 64.6371L48.293 28.5689C50.9544 25.7471 55.6964 27.6306 55.6964 31.5095V103.646C55.6964 107.525 50.9544 109.408 48.293 106.587L14.2736 70.5183Z" fill="currentColor"/>
<path d="M73.919 47.1142C79.0134 53.3073 81.9219 61.0083 82.1934 69.0229C82.4649 77.0374 80.0843 84.9177 75.4207 91.4413L69.9181 87.5077C73.7157 82.1953 75.6543 75.7783 75.4332 69.2519C75.2121 62.7255 72.8436 56.4544 68.6952 51.4112L73.919 47.1142Z" fill="currentColor"/>
<path d="M91.0086 33.7792C98.4488 43.3805 102.513 55.1686 102.571 67.3151C102.629 79.4617 98.6768 91.2879 91.3283 100.96L85.8337 96.7849C92.2632 88.3227 95.7208 77.9755 95.6703 67.348C95.6197 56.7205 92.0638 46.4066 85.554 38.006L91.0086 33.7792Z" fill="currentColor"/>
<path d="M108.536 20C118.892 34.0494 124.322 51.1233 123.985 68.5736C123.648 86.0238 117.562 102.875 106.672 116.514L100.287 111.416C110.055 99.1825 115.514 84.0677 115.816 68.4157C116.119 52.7638 111.248 37.4494 101.96 24.8477L108.536 20Z" fill="currentColor"/>
</svg>
