<svg width="482" height="368" viewBox="0 0 482 368" fill="none" xmlns="http://www.w3.org/2000/svg">
<rect x="272.675" y="21.213" width="264.031" height="159.509" transform="rotate(44.7467 272.675 21.213)" stroke="currentColor" stroke-width="30"/>
<mask id="path-2-inside-1_259_47" fill="white">
<path d="M179.048 159L317.687 296.419L257.639 357L119 219.581L179.048 159Z"/>
</mask>
<path d="M179.048 159L186.792 151.188L165.485 130.068L157.741 137.881L179.048 159ZM317.687 296.419L338.994 317.538L346.737 309.725L325.431 288.606L317.687 296.419ZM257.639 357L236.519 378.307L257.826 399.426L278.945 378.119L257.639 357ZM119 219.581L97.6929 198.462L76.5737 219.769L97.8805 240.888L119 219.581ZM179.048 159L171.304 166.812L309.943 304.231L317.687 296.419L325.431 288.606L186.792 151.188L179.048 159ZM317.687 296.419L296.38 275.299L236.332 335.881L257.639 357L278.945 378.119L338.994 317.538L317.687 296.419ZM257.639 357L278.758 335.693L140.119 198.275L119 219.581L97.8805 240.888L236.519 378.307L257.639 357ZM119 219.581L140.306 240.701L200.355 180.119L179.048 159L157.741 137.881L97.6929 198.462L119 219.581Z" fill="currentColor" mask="url(#path-2-inside-1_259_47)"/>
<line x1="163.508" y1="243.704" x2="54.5079" y2="350.704" stroke="currentColor" stroke-width="30"/>
<line x1="243.607" y1="315.607" x2="208.607" y2="350.607" stroke="currentColor" stroke-width="30"/>
<line x1="210" y1="350" x2="1.12056e-05" y2="350" stroke="currentColor" stroke-width="30"/>
<path d="M221.97 352.018C223.353 357.365 219.445 363 213.241 364.605C207.037 366.209 200.887 363.175 199.504 357.828C198.121 352.482 202.029 346.846 208.233 345.242C214.437 343.637 220.587 346.671 221.97 352.018Z" fill="currentColor"/>
</svg>
