<svg width="362" height="142" viewBox="0 0 362 142" fill="none" xmlns="http://www.w3.org/2000/svg">
<path d="M332.1 131.723C330.343 138.684 323.276 142.903 316.315 141.147L202.87 112.522C195.909 110.765 191.689 103.698 193.446 96.7363C195.203 89.7748 202.27 85.5554 209.231 87.3119L310.071 112.757L335.515 11.9172C337.272 4.95565 344.339 0.736229 351.301 2.49281C358.262 4.24939 362.482 11.3168 360.725 18.2783L332.1 131.723ZM11.9951 128.542L0.000226021 123.53C30.5509 50.4185 85.9799 4.07563 149.401 0.255157C212.989 -3.57536 279.166 35.6321 330.657 121.878L319.495 128.542L308.333 135.206C259.824 53.955 201.501 23.1638 150.964 26.2081C100.26 29.2625 51.9394 66.6681 23.99 133.554L11.9951 128.542Z" fill="currentColor"/>
</svg>
