<svg width="362" height="142" viewBox="0 0 362 142" fill="none" xmlns="http://www.w3.org/2000/svg">
<path d="M29.024 131.725C30.7806 138.687 37.8481 142.906 44.8096 141.149L158.254 112.523C165.215 110.767 169.434 103.699 167.678 96.7377C165.921 89.7762 158.854 85.5568 151.892 87.3135L51.0531 112.759L25.6077 11.9197C23.8511 4.95824 16.7837 0.738869 9.82217 2.49551C2.86069 4.25214 -1.35867 11.3196 0.397949 18.2811L29.024 131.725ZM349.129 128.544L361.124 123.532C330.573 50.4198 275.144 4.076 211.723 0.255463C148.135 -3.57515 81.9578 35.6331 30.4668 121.881L41.6289 128.544L52.791 135.208C101.3 53.9557 159.623 23.164 210.16 26.2084C260.864 29.2629 309.185 66.6691 337.134 133.557L349.129 128.544Z" fill="currentColor"/>
</svg>
