<svg width="38" height="38" viewBox="0 0 38 38" fill="none" xmlns="http://www.w3.org/2000/svg">
<path d="M28.8176 30.9977C29.398 31.5888 30.3477 31.5976 30.9388 31.0172C31.53 30.4368 31.5387 29.4871 30.9583 28.896L28.8176 30.9977ZM21.5947 23.6407L28.8176 30.9977L30.9583 28.896L23.7354 21.539L21.5947 23.6407Z" fill="currentColor"/>
<path d="M23.3504 7.79412C27.6374 12.0987 27.6231 19.0635 23.3185 23.3504C19.014 27.6374 12.0492 27.6231 7.7622 23.3185C3.47526 19.014 3.48954 12.0492 7.79411 7.76221C12.0987 3.47526 19.0635 3.48955 23.3504 7.79412ZM9.85982 21.2295C12.993 24.3756 18.0834 24.386 21.2295 21.2528C24.3756 18.1196 24.386 13.0292 21.2528 9.88315C18.1196 6.73706 13.0292 6.72662 9.88314 9.85983C6.73705 12.993 6.72661 18.0834 9.85982 21.2295Z" fill="currentColor"/>
</svg>
