<svg xmlns="http://www.w3.org/2000/svg" x="0px" y="0px" width="100" height="100" viewBox="-20,60,300,150"
style="fill:currentColor;">
<g fill="currentColor" fill-rule="nonzero" stroke="none" stroke-width="1" stroke-linecap="butt" stroke-linejoin="miter" stroke-miterlimit="10" stroke-dasharray="" stroke-dashoffset="0" font-family="none" font-weight="none" font-size="none" text-anchor="none" style="mix-blend-mode: normal"><g transform="scale(5.12,5.12)"><path d="M45,26.10156v-5.10156c0,-0.89844 -0.60156,-1.69922 -1.39844,-1.89844l-4.60156,-1.40234c-5.30078,-1.59766 -10.30078,-3 -15.60156,-4.69922h-0.09766c-0.80078,-0.19922 -1.60156,0.69922 -1.19922,1.5c1.89844,3.89844 3.89844,9.5 3.89844,9.5l6.69922,2.60156c-0.30078,0 -21.69922,11.39844 -21.69922,11.39844l9,-8v-23c0,-0.89844 -0.60156,-1.80078 -1.39844,-2c0,0 -4.90234,-1.89844 -8,-2.89844c-0.20312,-0.10156 -0.40234,-0.10156 -0.60156,-0.10156c-0.39844,0 -0.80078,0.10156 -1.19922,0.39844c-0.5,0.40234 -0.80078,1 -0.80078,1.60156v34.69922c0,0.69922 0.30078,1.30078 0.89844,1.60156c2.10156,1.5 4.30078,3 6.40234,4.5l3,2.09766c0.30078,0.20313 0.69922,0.40234 1.09766,0.40234c0.40234,0 0.70313,-0.10156 1,-0.30078c4.30078,-2.60156 8.70313,-5.19922 13,-7.80078l10.60156,-6.30078c0.60156,-0.39844 1,-1 1,-1.69922z"></path></g></g>
</svg>