<svg width="798" height="515" viewBox="0 0 798 515" fill="none" xmlns="http://www.w3.org/2000/svg">
<path d="M517.236 514.316L415.096 273.84C374.626 353.212 329.789 435.695 291.417 514.191C291.204 514.597 272.872 514.358 272.864 514.117C214.22 377.322 153.424 241.427 94.4989 104.737C80.8324 71.3228 32.9832 17.5699 0.246189 17.8755C0.234121 13.9929 0.0531204 5.34195 0 0.0954559L201.876 0L201.739 17.5462C178.029 18.6508 137.066 33.7682 147.67 59.9324C176.135 121.338 276.88 359.26 304.108 419.659C323.116 382.486 376.172 283.392 398.009 241.493C380.886 206.369 324.289 75.2083 307.321 42.1688C294.524 20.6374 262.413 17.9986 237.676 17.6294C237.684 12.0971 237.984 7.86409 237.854 0.30463L415.338 0.851021V16.9609C391.303 17.6279 368.56 26.5638 378.853 49.5192C402.728 99.0597 416.656 134.318 438.608 180.132C445.619 166.716 481.464 93.1519 498.573 54.3089C508.916 28.5086 493.476 18.8237 450.233 17.6617C450.805 13.4167 450.428 4.89106 450.791 0.82853C505.978 0.620801 589.307 0.427858 604.062 0.205343L604.144 16.9705C575.973 18.063 546.836 33.0682 531.612 56.3486L457.805 209.36C465.911 229.623 536.861 387.188 544.34 404.663L696.938 52.6251C686.085 24.1141 651.447 17.7492 637.906 17.4279C638.003 12.895 638.011 5.96863 638.049 0.199065L797.344 1.41031L797.56 2.21502L797.288 17.3543C762.341 18.4071 740.723 37.0854 727.806 67.7091C696.063 139.386 599.022 366.41 534.253 514.366C534.168 514.448 517.274 514.341 517.236 514.316Z" fill="currentColor"/>
</svg>
