<svg width="273" height="274" viewBox="0 0 273 274" fill="none" xmlns="http://www.w3.org/2000/svg">
<line x1="137" y1="12" x2="137" y2="38" stroke="black" stroke-width="2" stroke-linecap="round"/>
<line x1="137" y1="236" x2="137" y2="262" stroke="black" stroke-width="2" stroke-linecap="round"/>
<line x1="261" y1="137" x2="236" y2="137" stroke="black" stroke-width="2" stroke-linecap="round"/>
<line x1="37" y1="137" x2="13" y2="137" stroke="black" stroke-width="2" stroke-linecap="round"/>
<line x1="208.38" y1="12.3623" x2="187.362" y2="49.6203" stroke="black" stroke-width="2" stroke-linecap="round"/>
<line x1="86.3664" y1="224.366" x2="65.3658" y2="260.764" stroke="black" stroke-width="2" stroke-linecap="round"/>
<line x1="260.682" y1="65.386" x2="223.806" y2="87.0666" stroke="black" stroke-width="2" stroke-linecap="round"/>
<line x1="49.6228" y1="187.363" x2="12.3256" y2="208.49" stroke="black" stroke-width="2" stroke-linecap="round"/>
<line x1="260.731" y1="208.199" x2="224.371" y2="187.365" stroke="black" stroke-width="2" stroke-linecap="round"/>
<line x1="48.858" y1="86.1935" x2="13.3567" y2="65.3687" stroke="black" stroke-width="2" stroke-linecap="round"/>
<line x1="208.244" y1="260.016" x2="187.125" y2="223.82" stroke="black" stroke-width="2" stroke-linecap="round"/>
<line x1="85.4896" y1="48.576" x2="65.1114" y2="12.8164" stroke="black" stroke-width="2" stroke-linecap="round"/>
<line x1="124.074" y1="13.4204" x2="124.92" y2="24.4262" stroke="#AFAFAF" stroke-width="2" stroke-linecap="round"/>
<line x1="149.069" y1="248.926" x2="149.926" y2="260.931" stroke="#AFAFAF" stroke-width="2" stroke-linecap="round"/>
<line x1="110.187" y1="13.2683" x2="112.768" y2="25.3127" stroke="#AFAFAF" stroke-width="2" stroke-linecap="round"/>
<line x1="161.153" y1="248.818" x2="163.168" y2="260.672" stroke="#AFAFAF" stroke-width="2" stroke-linecap="round"/>
<line x1="96.2714" y1="13.1194" x2="100.619" y2="25.7286" stroke="#AFAFAF" stroke-width="2" stroke-linecap="round"/>
<line x1="81.3353" y1="12.9658" x2="87.4658" y2="25.6647" stroke="#AFAFAF" stroke-width="2" stroke-linecap="round"/>
<line x1="47.3958" y1="13.7272" x2="55.2272" y2="24.6042" stroke="#AFAFAF" stroke-width="2" stroke-linecap="round"/>
<line x1="27.4126" y1="16.0673" x2="36.0673" y2="25.5874" stroke="#AFAFAF" stroke-width="2" stroke-linecap="round"/>
<line x1="15.4126" y1="27.9327" x2="24.9327" y2="36.5874" stroke="#AFAFAF" stroke-width="2" stroke-linecap="round"/>
<path d="M13 47L25 56" stroke="#AFAFAF" stroke-width="2" stroke-linecap="round"/>
<path d="M13.0132 81.9687L24.9868 87.0315" stroke="#AFAFAF" stroke-width="2" stroke-linecap="round"/>
<path d="M13 97L25 101" stroke="#AFAFAF" stroke-width="2" stroke-linecap="round"/>
<path d="M13.0073 110.958L24.9932 113.042" stroke="#AFAFAF" stroke-width="2" stroke-linecap="round"/>
<path d="M13 124L25 125" stroke="#AFAFAF" stroke-width="2" stroke-linecap="round"/>
<path d="M13 150L25 149" stroke="#AFAFAF" stroke-width="2" stroke-linecap="round"/>
<path d="M13 163L25 161" stroke="#AFAFAF" stroke-width="2" stroke-linecap="round"/>
<path d="M13 177L25 173" stroke="#AFAFAF" stroke-width="2" stroke-linecap="round"/>
<path d="M13 192L25 187" stroke="#AFAFAF" stroke-width="2" stroke-linecap="round"/>
<path d="M13 227L25 218" stroke="#AFAFAF" stroke-width="2" stroke-linecap="round"/>
<path d="M15 246L25 237" stroke="#AFAFAF" stroke-width="2" stroke-linecap="round"/>
<path d="M28 258L36 249" stroke="#AFAFAF" stroke-width="2" stroke-linecap="round"/>
<path d="M47 261L56 249" stroke="#AFAFAF" stroke-width="2" stroke-linecap="round"/>
<line x1="173.236" y1="248.687" x2="176.687" y2="260.764" stroke="#AFAFAF" stroke-width="2" stroke-linecap="round"/>
<line x1="186.313" y1="248.525" x2="191.525" y2="260.687" stroke="#AFAFAF" stroke-width="2" stroke-linecap="round"/>
<line x1="217.395" y1="248.232" x2="226.232" y2="260.605" stroke="#AFAFAF" stroke-width="2" stroke-linecap="round"/>
<line x1="236.413" y1="248.061" x2="245.873" y2="258.382" stroke="#AFAFAF" stroke-width="2" stroke-linecap="round"/>
<line x1="248.132" y1="237.221" x2="258.206" y2="246.292" stroke="#AFAFAF" stroke-width="2" stroke-linecap="round"/>
<line x1="248.402" y1="217.816" x2="260.376" y2="227.007" stroke="#AFAFAF" stroke-width="2" stroke-linecap="round"/>
<line x1="248.322" y1="186.497" x2="260.238" y2="191.849" stroke="#AFAFAF" stroke-width="2" stroke-linecap="round"/>
<line x1="248.342" y1="173.098" x2="260.28" y2="177.001" stroke="#AFAFAF" stroke-width="2" stroke-linecap="round"/>
<line x1="248.176" y1="160.714" x2="260.224" y2="163.105" stroke="#AFAFAF" stroke-width="2" stroke-linecap="round"/>
<line x1="248.088" y1="148.615" x2="260.139" y2="149.932" stroke="#AFAFAF" stroke-width="2" stroke-linecap="round"/>
<line x1="248.391" y1="125.067" x2="260.441" y2="123.809" stroke="#AFAFAF" stroke-width="2" stroke-linecap="round"/>
<line x1="248.268" y1="112.922" x2="260.813" y2="110.232" stroke="#AFAFAF" stroke-width="2" stroke-linecap="round"/>
<line x1="248.655" y1="100.749" x2="261.098" y2="96.8451" stroke="#AFAFAF" stroke-width="2" stroke-linecap="round"/>
<line x1="248.525" y1="87.1869" x2="260.687" y2="81.9748" stroke="#AFAFAF" stroke-width="2" stroke-linecap="round"/>
<line x1="149.678" y1="13.0508" x2="149.051" y2="25.0536" stroke="#AFAFAF" stroke-width="2" stroke-linecap="round"/>
<line x1="124.909" y1="249.083" x2="123.947" y2="260.077" stroke="#AFAFAF" stroke-width="2" stroke-linecap="round"/>
<line x1="162.804" y1="13.1599" x2="160.66" y2="25.1909" stroke="#AFAFAF" stroke-width="2" stroke-linecap="round"/>
<line x1="177.141" y1="13.2578" x2="173.258" y2="25.3535" stroke="#AFAFAF" stroke-width="2" stroke-linecap="round"/>
<line x1="191.981" y1="13.328" x2="186.328" y2="25.5137" stroke="#AFAFAF" stroke-width="2" stroke-linecap="round"/>
<line x1="226.358" y1="13.1186" x2="217.759" y2="25.0501" stroke="#AFAFAF" stroke-width="2" stroke-linecap="round"/>
<line x1="245.656" y1="16.2509" x2="236.584" y2="26.1039" stroke="#AFAFAF" stroke-width="2" stroke-linecap="round"/>
<line x1="257.99" y1="27.7025" x2="248.132" y2="36.7695" stroke="#AFAFAF" stroke-width="2" stroke-linecap="round"/>
<line x1="260.13" y1="47.4" x2="248.4" y2="56.1998" stroke="#AFAFAF" stroke-width="2" stroke-linecap="round"/>
<line x1="112.765" y1="249.19" x2="110.19" y2="261.021" stroke="#AFAFAF" stroke-width="2" stroke-linecap="round"/>
<line x1="100.599" y1="249.281" x2="96.2812" y2="261.187" stroke="#AFAFAF" stroke-width="2" stroke-linecap="round"/>
<line x1="87.4961" y1="248.324" x2="81.8246" y2="260.79" stroke="#AFAFAF" stroke-width="2" stroke-linecap="round"/>
</svg>
