<svg style="width: auto; height: 100%" width="15" height="273" viewBox="0 0 15 273" fill="none" xmlns="http://www.w3.org/2000/svg">
<path d="M5.53378 66.4057H9.22297L9.22297 130.967H5.53378L5.53378 66.4057Z" fill="currentColor"/>
<path d="M14.7568 136.5C14.7568 140.575 11.4533 143.879 7.37838 143.879C3.30341 143.879 0 140.575 0 136.5C0 132.425 3.30341 129.122 7.37838 129.122C11.4533 129.122 14.7568 132.425 14.7568 136.5Z" fill="currentColor"/>
<path d="M1.84458 12.874C1.84458 9.81775 4.25627 7.32959 7.3125 7.32959C10.3687 7.32959 12.8135 9.81775 12.8135 12.874L12.9122 114.365C12.9122 117.421 10.4346 119.899 7.37838 119.899C4.32215 119.899 1.84459 117.421 1.84459 114.365L1.84458 12.874Z" fill="currentColor"/>
</svg>
