<svg width="161" height="143" viewBox="0 0 161 143" fill="none" xmlns="http://www.w3.org/2000/svg">
<g clip-path="url(#clip0_170_51)">
<path d="M0 38H161V131C161 137.627 155.627 143 149 143H12C5.37259 143 0 137.627 0 131V38Z" fill="#F1F3F4"/>
<path fill-rule="evenodd" clip-rule="evenodd" d="M161 0H0V73H161V0ZM61 17C57.1338 17 54 20.134 54 24V25C54 28.866 57.1338 32 61 32H100C103.866 32 107 28.866 107 25V24C107 20.134 103.866 17 100 17H61Z" fill="#E8EAED"/>
<g clip-path="url(#clip1_170_51)">
<path d="M80.925 165.171C100.422 165.171 116.231 149.699 116.231 130.611C116.231 111.523 100.425 96.0513 80.925 96.0513C61.425 96.0513 45.6191 111.523 45.6191 130.611C45.6191 149.699 61.425 165.171 80.925 165.171Z" fill="white"/>
<path d="M50.3482 147.897L19.7794 96.0679C13.5807 106.574 10.3164 118.492 10.3164 130.625C10.3164 142.758 13.578 154.676 19.7766 165.182C25.9752 175.689 34.8891 184.412 45.625 190.477C56.361 196.542 68.5364 199.731 80.9309 199.729L111.5 147.897V147.889C108.405 153.145 103.948 157.51 98.5811 160.545C93.2145 163.581 87.1268 165.18 80.9281 165.18C74.7295 165.18 68.6418 163.583 63.2724 160.551C57.903 157.518 53.4461 153.153 50.3482 147.897Z" fill="url(#paint0_linear_170_51)"/>
<path d="M111.497 147.897L80.9279 199.726C93.3224 199.728 105.498 196.536 116.231 190.468C126.964 184.403 135.878 175.678 142.074 165.171C148.27 154.665 151.531 142.744 151.529 130.611C151.526 118.479 148.261 106.56 142.06 96.0566H80.9224L80.9141 96.0621C87.1127 96.0594 93.2032 97.653 98.5698 100.685C103.939 103.718 108.396 108.081 111.497 113.334C114.597 118.587 116.228 124.549 116.228 130.617C116.231 136.682 114.597 142.641 111.497 147.897Z" fill="url(#paint1_linear_170_51)"/>
<path d="M80.9253 157.977C96.3623 157.977 108.876 145.727 108.876 130.617C108.876 115.506 96.3623 103.256 80.9253 103.256C65.4884 103.256 52.9746 115.506 52.9746 130.617C52.9746 145.727 65.4884 157.977 80.9253 157.977Z" fill="#1A73E8"/>
<path d="M80.9253 96.0595H142.066C135.87 85.5503 126.956 76.8248 116.223 70.7598C105.49 64.6922 93.3142 61.4995 80.9197 61.4995C68.5252 61.4995 56.3498 64.6949 45.6166 70.7626C34.8834 76.8302 25.9724 85.5585 19.7793 96.0649L50.3481 147.897L50.3564 147.902C47.2557 142.649 45.6194 136.69 45.6194 130.622C45.6194 124.554 47.2474 118.593 50.3454 113.339C53.4433 108.084 57.9002 103.721 63.2696 100.688C68.6362 97.6531 74.7266 96.0568 80.9253 96.0595Z" fill="url(#paint2_linear_170_51)"/>
</g>
</g>
<defs>
<linearGradient id="paint0_linear_170_51" x1="88.5676" y1="195.412" x2="29.3621" y2="90.6516" gradientUnits="userSpaceOnUse">
<stop stop-color="#1E8E3E"/>
<stop offset="1" stop-color="#34A853"/>
</linearGradient>
<linearGradient id="paint1_linear_170_51" x1="70.6246" y1="199.909" x2="129.83" y2="95.1491" gradientUnits="userSpaceOnUse">
<stop stop-color="#FCC934"/>
<stop offset="1" stop-color="#FBBC04"/>
</linearGradient>
<linearGradient id="paint2_linear_170_51" x1="19.7789" y1="104.701" x2="142.065" y2="104.701" gradientUnits="userSpaceOnUse">
<stop stop-color="#D93025"/>
<stop offset="1" stop-color="#EA4335"/>
</linearGradient>
<clipPath id="clip0_170_51">
<rect width="161" height="143" fill="white"/>
</clipPath>
<clipPath id="clip1_170_51">
<rect width="142" height="139" fill="white" transform="translate(10 61)"/>
</clipPath>
</defs>
</svg>
