<svg width="202" height="258" viewBox="0 0 202 258" fill="none" xmlns="http://www.w3.org/2000/svg">
<path fill-rule="evenodd" clip-rule="evenodd" d="M100.463 0L0 28.9946V106.38L1.73389 123.064L1.86646 123.038L5.50732 141.915L14.7527 170.16C36.4841 215.214 69.1235 247.362 100.993 257.022L166.979 145.67L186.322 157.132C185.622 134.743 181.032 110.408 172.201 85.9575C160.686 54.0764 143.75 26.9551 124.585 7.21387L124.554 7.31665L100.463 0Z" fill="#448AF1"/>
<path fill-rule="evenodd" clip-rule="evenodd" d="M101.709 0L202 28.9951V106.366L200.268 123.062L200.137 123.037L196.501 141.918L187.276 170.151C165.582 215.209 132.998 247.36 101.181 257.02L35.3096 145.668L15.9998 157.131C16.699 134.742 21.2806 110.407 30.0965 85.9562C41.5917 54.0749 58.4991 26.9533 77.6306 7.21209L77.6621 7.31598L101.709 0Z" fill="#448AF1"/>
<circle cx="102" cy="109" r="62" fill="white"/>
<path fill-rule="evenodd" clip-rule="evenodd" d="M146.851 151.806C157.476 140.678 164 125.601 164 109C164 74.7583 136.242 47 102 47C67.7583 47 40 74.7583 40 109C40 125.252 46.2529 140.043 56.4844 151.099C62.8232 138.251 80.5825 129 101.5 129C122.799 129 140.824 138.592 146.851 151.806Z" fill="#3266BA"/>
<circle cx="102" cy="90" r="23" fill="white"/>
</svg>
