<svg width="158" height="211" viewBox="0 0 158 211" fill="none" xmlns="http://www.w3.org/2000/svg">
<path fill-rule="evenodd" clip-rule="evenodd" d="M15 0C6.71582 0 0 6.71582 0 15V211H0.347168L64 184L126 210.299V0H15Z" fill="#FACA23"/>
<g clip-path="url(#clip0_170_111)">
<path fill-rule="evenodd" clip-rule="evenodd" d="M35.0729 114.342C32.891 110.036 31.6401 105.178 31.6401 100C31.6401 94.8218 32.891 89.9636 35.0729 85.6581C40.3383 75.1855 51.131 68 63.6401 68C72.2801 68 79.4946 71.1709 85.051 76.3491L75.8873 85.5128C72.5419 82.3709 68.3528 80.7418 63.6401 80.7418C55.3201 80.7418 48.251 86.3564 45.7201 93.92C45.0801 95.84 44.7019 97.8763 44.7019 100C44.7019 102.124 45.0801 104.16 45.7201 106.08L45.6823 106.109H45.7201C48.251 113.673 55.3201 119.287 63.6401 119.287C67.9455 119.287 71.5819 118.124 74.4328 116.204C77.8365 113.935 80.1055 110.56 80.8619 106.575H63.6401V94.1818H93.7783C94.1564 96.2764 94.36 98.4581 94.36 100.727C94.36 110.473 90.8691 118.676 84.8183 124.262C79.5238 129.149 72.2801 132 63.6401 132C51.131 132 40.3383 124.815 35.0729 114.371V114.342Z" fill="white"/>
</g>
<rect x="113" width="29" height="28" fill="#FACA23"/>
<path fill-rule="evenodd" clip-rule="evenodd" d="M142 0C133.164 0 126 7.16333 126 16V172.029L158 185.843V16C158 7.16333 150.836 0 142 0Z" fill="url(#paint0_linear_170_111)"/>
<defs>
<linearGradient id="paint0_linear_170_111" x1="142" y1="0" x2="142" y2="186" gradientUnits="userSpaceOnUse">
<stop stop-color="#E56700"/>
<stop offset="1" stop-color="#EF8F00"/>
</linearGradient>
<clipPath id="clip0_170_111">
<rect width="64" height="64" fill="white" transform="translate(31 68)"/>
</clipPath>
</defs>
</svg>
