<svg width="325" height="162" viewBox="0 0 325 162" fill="none" xmlns="http://www.w3.org/2000/svg">
<path d="M162 81C162 125.735 125.735 162 81 162C36.2649 162 0 125.735 0 81C0 36.2649 36.2649 0 81 0C125.735 0 162 36.2649 162 81ZM43.1676 81C43.1676 101.894 60.1057 118.832 81 118.832C101.894 118.832 118.832 101.894 118.832 81C118.832 60.1057 101.894 43.1676 81 43.1676C60.1057 43.1676 43.1676 60.1057 43.1676 81Z" fill="#4491FD"/>
<path fill-rule="evenodd" clip-rule="evenodd" d="M112.675 102C116.672 95.9839 119 88.7639 119 81C119 72.8086 116.408 65.2229 112 59.0176V59H162V102H112.675Z" fill="#E5202E"/>
<path fill-rule="evenodd" clip-rule="evenodd" d="M162.023 81C162.023 88.2629 161.067 95.3025 159.275 102H324.023V59H159C160.97 65.9954 162.023 73.3748 162.023 81Z" fill="#F7C412"/>
<rect x="236" y="59" width="88" height="43" fill="#0B8645"/>
<path fill-rule="evenodd" clip-rule="evenodd" d="M324 102H236V147H265V133C265 124.716 271.716 118 280 118C288.284 118 295 124.716 295 133V147H324V102Z" fill="#31BF7D"/>
</svg>
