<svg width="797" height="797" viewBox="0 0 797 797" fill="none" xmlns="http://www.w3.org/2000/svg">
<g clip-path="url(#clip0_196_30)">
<path d="M647.562 797H149.438C66.9054 797 0 730.095 0 647.562V149.438C0 66.9055 66.9054 0 149.438 0H647.562C730.095 0 797 66.9055 797 149.438V647.562C797 730.095 730.095 797 647.562 797Z" fill="#F4F4F4"/>
<path d="M259.025 336.234H184.306C170.551 336.234 159.4 325.083 159.4 311.328V236.609C159.4 222.854 170.551 211.703 184.306 211.703H259.025C272.78 211.703 283.931 222.854 283.931 236.609V311.328C283.931 325.083 272.78 336.234 259.025 336.234Z" fill="#FF5722"/>
<path d="M433.369 336.234H358.65C344.895 336.234 333.744 325.083 333.744 311.328V236.609C333.744 222.854 344.895 211.703 358.65 211.703H433.369C447.124 211.703 458.275 222.854 458.275 236.609V311.328C458.275 325.083 447.124 336.234 433.369 336.234Z" fill="#FFC107"/>
<path d="M607.712 336.234H532.994C519.238 336.234 508.087 325.083 508.087 311.328V236.609C508.087 222.854 519.238 211.703 532.994 211.703H607.712C621.468 211.703 632.619 222.854 632.619 236.609V311.328C632.619 325.083 621.468 336.234 607.712 336.234Z" fill="#4CAF50"/>
<path d="M635.109 572.844H161.891C127.502 572.844 99.625 544.966 99.625 510.578C99.625 476.19 127.502 448.312 161.891 448.312H635.109C669.498 448.312 697.375 476.19 697.375 510.578C697.375 544.966 669.498 572.844 635.109 572.844Z" fill="#E3E6E8"/>
<path d="M625.147 473.219C645.78 473.219 662.506 489.945 662.506 510.578C662.506 531.211 645.78 547.938 625.147 547.938C604.514 547.938 587.788 531.211 587.788 510.578C587.788 489.945 604.514 473.219 625.147 473.219Z" fill="#2196F3"/>
<path d="M204.563 543.948L183.642 523.027C181.982 524.355 180.072 525.407 177.914 526.182C175.755 526.957 173.458 527.344 171.023 527.344C164.99 527.344 159.884 525.255 155.706 521.076C151.527 516.897 149.438 511.792 149.438 505.759C149.438 499.726 151.527 494.62 155.706 490.441C159.884 486.263 164.99 484.173 171.023 484.173C177.056 484.173 182.162 486.263 186.34 490.441C190.519 494.62 192.608 499.726 192.608 505.759C192.608 508.194 192.221 510.491 191.446 512.649C190.671 514.808 189.62 516.718 188.291 518.378L209.212 539.299L204.563 543.948ZM171.023 520.703C175.174 520.703 178.702 519.25 181.608 516.344C184.514 513.438 185.967 509.91 185.967 505.759C185.967 501.608 184.514 498.079 181.608 495.174C178.702 492.268 175.174 490.815 171.023 490.815C166.872 490.815 163.343 492.268 160.438 495.174C157.532 498.079 156.079 501.608 156.079 505.759C156.079 509.91 157.532 513.438 160.438 516.344C163.343 519.25 166.872 520.703 171.023 520.703Z" fill="#1D1B20"/>
</g>
<defs>
<clipPath id="clip0_196_30">
<rect width="797" height="797" fill="white" transform="matrix(1 0 0 -1 0 797)"/>
</clipPath>
</defs>
</svg>
