<svg width="250" height="250" viewBox="0 0 250 250" fill="none" xmlns="http://www.w3.org/2000/svg">
<rect width="250" height="250" rx="65" fill="#2E2D2E"/>
<circle cx="97.9998" cy="153" r="70" transform="rotate(178.436 97.9998 153)" fill="url(#paint0_linear_262_98)"/>
<foreignObject x="71" y="18" width="156" height="159"><div xmlns="http://www.w3.org/1999/xhtml" style="backdrop-filter:blur(5.5px);clip-path:url(#bgblur_0_262_98_clip_path);height:100%;width:100%"></div></foreignObject><rect data-figma-bg-blur-radius="11" x="82" y="29" width="134" height="137" rx="34" fill="url(#paint1_linear_262_98)"/>
<path d="M50.3851 163.26C104.275 43.894 113.272 121.895 113.276 131.895C113.009 141.891 130.775 163.26 145.775 126.894" stroke="black" stroke-width="13" stroke-linecap="round"/>
<path d="M144.776 130.394C144.775 122.394 166.777 94.3939 175.271 134.39" stroke="black" stroke-width="11" stroke-linecap="round"/>
<path d="M174.276 132.894C176.787 140.458 195.614 162.56 218.775 114.394" stroke="black" stroke-width="9" stroke-linecap="round"/>
<defs>
<clipPath id="bgblur_0_262_98_clip_path" transform="translate(-71 -18)"><rect x="82" y="29" width="134" height="137" rx="34"/>
</clipPath><linearGradient id="paint0_linear_262_98" x1="97.9998" y1="83.0001" x2="97.9998" y2="223" gradientUnits="userSpaceOnUse">
<stop stop-color="#BC4C42"/>
<stop offset="1" stop-color="#FFA81B"/>
</linearGradient>
<linearGradient id="paint1_linear_262_98" x1="149" y1="29" x2="149" y2="166" gradientUnits="userSpaceOnUse">
<stop stop-color="#06CDFF" stop-opacity="0.79"/>
<stop offset="1" stop-color="#0B5C7B" stop-opacity="0.83"/>
</linearGradient>
</defs>
</svg>
