<svg width="167" height="167" viewBox="0 0 167 167" fill="none" xmlns="http://www.w3.org/2000/svg">
<rect width="167" height="167" rx="35" fill="url(#paint0_linear_192_53)"/>
<mask id="path-2-inside-1_192_53" fill="white">
<path fill-rule="evenodd" clip-rule="evenodd" d="M69 55C69 66.0457 60.0457 75 49 75C37.9543 75 29 66.0457 29 55C29 43.9543 37.9543 35 49 35C60.0457 35 69 43.9543 69 55ZM37.187 54.2786C38.1377 53.2773 39.7201 53.2363 40.7214 54.187L45.9743 59.1747L55.5184 46.9037C56.3661 45.8138 57.9368 45.6175 59.0266 46.4651C60.1165 47.3128 60.3128 48.8835 59.4651 49.9734L48.5349 64.0266C48.1269 64.5511 47.5516 64.8686 46.943 64.9625C46.0615 65.3208 45.0135 65.1572 44.2786 64.4594L37.2786 57.813C36.2773 56.8623 36.2363 55.2799 37.187 54.2786Z"/>
</mask>
<path fill-rule="evenodd" clip-rule="evenodd" d="M69 55C69 66.0457 60.0457 75 49 75C37.9543 75 29 66.0457 29 55C29 43.9543 37.9543 35 49 35C60.0457 35 69 43.9543 69 55ZM37.187 54.2786C38.1377 53.2773 39.7201 53.2363 40.7214 54.187L45.9743 59.1747L55.5184 46.9037C56.3661 45.8138 57.9368 45.6175 59.0266 46.4651C60.1165 47.3128 60.3128 48.8835 59.4651 49.9734L48.5349 64.0266C48.1269 64.5511 47.5516 64.8686 46.943 64.9625C46.0615 65.3208 45.0135 65.1572 44.2786 64.4594L37.2786 57.813C36.2773 56.8623 36.2363 55.2799 37.187 54.2786Z" fill="url(#paint1_linear_192_53)"/>
<path d="M40.7214 54.187L40.0328 54.9122H40.0328L40.7214 54.187ZM37.187 54.2786L37.9122 54.9672L37.187 54.2786ZM45.9743 59.1747L45.2857 59.8998L46.0861 60.6598L46.7636 59.7886L45.9743 59.1747ZM55.5184 46.9037L56.3077 47.5176L55.5184 46.9037ZM59.4651 49.9734L60.2545 50.5873L59.4651 49.9734ZM48.5349 64.0266L49.3242 64.6406L48.5349 64.0266ZM46.943 64.9625L46.7905 63.9742L46.6749 63.992L46.5664 64.0361L46.943 64.9625ZM44.2786 64.4594L43.59 65.1846L44.2786 64.4594ZM37.2786 57.813L37.9672 57.0878L37.2786 57.813ZM49 76C60.598 76 70 66.598 70 55H68C68 65.4934 59.4934 74 49 74V76ZM28 55C28 66.598 37.402 76 49 76V74C38.5066 74 30 65.4934 30 55H28ZM49 34C37.402 34 28 43.402 28 55H30C30 44.5066 38.5066 36 49 36V34ZM70 55C70 43.402 60.598 34 49 34V36C59.4934 36 68 44.5066 68 55H70ZM41.41 53.4619C40.0082 52.1309 37.7928 52.1883 36.4619 53.59L37.9122 54.9672C38.4826 54.3664 39.4321 54.3418 40.0328 54.9122L41.41 53.4619ZM46.6628 58.4495L41.41 53.4619L40.0328 54.9122L45.2857 59.8998L46.6628 58.4495ZM46.7636 59.7886L56.3077 47.5176L54.729 46.2897L45.1849 58.5607L46.7636 59.7886ZM56.3077 47.5176C56.8163 46.8637 57.7588 46.7459 58.4127 47.2545L59.6406 45.6758C58.1147 44.4891 55.9158 44.7639 54.729 46.2897L56.3077 47.5176ZM58.4127 47.2545C59.0666 47.7631 59.1844 48.7055 58.6758 49.3594L60.2545 50.5873C61.4412 49.0615 61.1664 46.8625 59.6406 45.6758L58.4127 47.2545ZM58.6758 49.3594L47.7455 63.4127L49.3242 64.6406L60.2545 50.5873L58.6758 49.3594ZM47.7455 63.4127C47.5005 63.7277 47.1569 63.9177 46.7905 63.9742L47.0954 65.9508C47.9462 65.8196 48.7534 65.3744 49.3242 64.6406L47.7455 63.4127ZM43.59 65.1846C44.62 66.1626 46.0877 66.3896 47.3195 65.8889L46.5664 64.0361C46.0353 64.252 45.407 64.1519 44.9672 63.7343L43.59 65.1846ZM36.59 58.5381L43.59 65.1846L44.9672 63.7343L37.9672 57.0878L36.59 58.5381ZM36.4619 53.59C35.1309 54.9918 35.1883 57.2072 36.59 58.5381L37.9672 57.0878C37.3664 56.5174 37.3418 55.5679 37.9122 54.9672L36.4619 53.59Z" fill="url(#paint2_linear_192_53)" mask="url(#path-2-inside-1_192_53)"/>
<line x1="87.5" y1="54.5" x2="135.5" y2="54.5" stroke="url(#paint3_linear_192_53)" stroke-width="7" stroke-linecap="round"/>
<line x1="87.5" y1="112.5" x2="135.5" y2="112.5" stroke="url(#paint4_linear_192_53)" stroke-width="7" stroke-linecap="round"/>
<mask id="path-6-inside-2_192_53" fill="white">
<path d="M69 113C69 124.046 60.0457 133 49 133C37.9543 133 29 124.046 29 113C29 101.954 37.9543 93 49 93C60.0457 93 69 101.954 69 113ZM35.6177 113C35.6177 120.391 41.6091 126.382 49 126.382C56.3909 126.382 62.3823 120.391 62.3823 113C62.3823 105.609 56.3909 99.6177 49 99.6177C41.6091 99.6177 35.6177 105.609 35.6177 113Z"/>
</mask>
<path d="M69 113C69 124.046 60.0457 133 49 133C37.9543 133 29 124.046 29 113C29 101.954 37.9543 93 49 93C60.0457 93 69 101.954 69 113ZM35.6177 113C35.6177 120.391 41.6091 126.382 49 126.382C56.3909 126.382 62.3823 120.391 62.3823 113C62.3823 105.609 56.3909 99.6177 49 99.6177C41.6091 99.6177 35.6177 105.609 35.6177 113Z" fill="url(#paint5_linear_192_53)" stroke="url(#paint6_linear_192_53)" stroke-width="2" mask="url(#path-6-inside-2_192_53)"/>
<defs>
<linearGradient id="paint0_linear_192_53" x1="83.5" y1="0" x2="83.5" y2="167" gradientUnits="userSpaceOnUse">
<stop stop-color="#F0F0F0"/>
<stop offset="1" stop-color="#CCCCCC"/>
</linearGradient>
<linearGradient id="paint1_linear_192_53" x1="49" y1="35" x2="49" y2="75" gradientUnits="userSpaceOnUse">
<stop stop-color="#484948"/>
<stop offset="1" stop-color="#979696"/>
</linearGradient>
<linearGradient id="paint2_linear_192_53" x1="49" y1="35" x2="49" y2="75" gradientUnits="userSpaceOnUse">
<stop stop-color="#484948"/>
<stop offset="1" stop-color="#979696"/>
</linearGradient>
<linearGradient id="paint3_linear_192_53" x1="111.5" y1="58" x2="111.5" y2="59" gradientUnits="userSpaceOnUse">
<stop stop-color="#484948"/>
<stop offset="1" stop-color="#979696"/>
</linearGradient>
<linearGradient id="paint4_linear_192_53" x1="111.5" y1="116" x2="111.5" y2="117" gradientUnits="userSpaceOnUse">
<stop stop-color="#484948"/>
<stop offset="1" stop-color="#979696"/>
</linearGradient>
<linearGradient id="paint5_linear_192_53" x1="49" y1="93" x2="49" y2="133" gradientUnits="userSpaceOnUse">
<stop stop-color="#484948"/>
<stop offset="1" stop-color="#848181"/>
</linearGradient>
<linearGradient id="paint6_linear_192_53" x1="49" y1="93" x2="49" y2="133" gradientUnits="userSpaceOnUse">
<stop stop-color="#484948"/>
<stop offset="1" stop-color="#979696"/>
</linearGradient>
</defs>
</svg>
