<svg style="width: 100%; height: 100%" width="142" height="142" viewBox="0 0 142 142" fill="none" xmlns="http://www.w3.org/2000/svg">
<path d="M71 1V6M71 136V141M106 10.3782L103.5 14.7084M38.5 127.292L36 131.622M131.622 36L127.292 38.5M14.7084 103.5L10.3783 106M141 71.0001H136M6 71.0001H1M131.622 106L127.292 103.5M14.7084 38.5001L10.3783 36.0001M106 131.622L103.5 127.292M38.4999 14.7083L35.9999 10.3781" stroke="#1C1C1E" stroke-width="1.5" stroke-linecap="round"/>
<path d="M78.3171 1.3833L77.7944 6.35591M64.2057 135.644L63.6831 140.616M85.5539 2.52954L84.5143 7.42028M57.4858 134.579L56.4462 139.47M92.6311 4.4259L91.0861 9.18119M50.9138 132.819L49.3688 137.574M99.4716 7.05164L97.4379 11.6194M44.5621 130.38L42.5285 134.948M112.145 14.3687L109.206 18.4137M32.7939 123.586L29.855 127.631M117.839 18.9798L114.493 22.6955M27.5065 119.304L24.1609 123.02M123.02 24.1607L119.304 27.5064M22.6955 114.493L18.9798 117.839M127.631 29.855L123.586 32.794M18.4139 109.206L14.3688 112.145M134.948 42.5282L130.38 44.5619M11.6193 97.4376L7.05155 99.4713M137.574 49.3687L132.818 50.9138M9.18114 91.086L4.42586 92.6311M139.47 56.4461L134.579 57.4857M7.41996 84.5142L2.52922 85.5537M140.616 63.683L135.644 64.2056M6.35593 77.7943L1.38332 78.317M140.616 78.3167L135.644 77.794M6.35567 64.2053L1.38306 63.6827M139.47 85.5535L134.58 84.5139M7.42034 57.4854L2.5296 56.4458M137.574 92.631L132.818 91.0859M9.18101 50.9137L4.42573 49.3686M134.948 99.4711L130.38 97.4374M11.6194 44.5616L7.05167 42.5279M127.631 112.145L123.586 109.206M18.4135 32.7935L14.3684 29.8546M123.02 117.839L119.304 114.493M22.6956 27.506L18.9799 24.1603M117.839 123.019L114.493 119.304M27.506 22.6949L24.1604 18.9791M112.145 127.631L109.206 123.586M32.7939 18.4135L29.855 14.3684M99.4712 134.948L97.4375 130.38M44.5618 11.6189L42.5281 7.05114M92.6311 137.574L91.0861 132.819M50.9138 9.18136L49.3688 4.42608M85.5535 139.469L84.5139 134.579M57.4854 7.41956L56.4459 2.52882M78.3168 140.617L77.7942 135.644M64.2055 6.35626L63.6828 1.38365" stroke="#B3B3B3" stroke-width="1.5" stroke-linecap="round"/>
</svg>
