<svg width="189" height="189" viewBox="0 0 189 189" fill="none" xmlns="http://www.w3.org/2000/svg">
<g clip-path="url(#clip0_268_35)">
<path d="M145.385 0H43.6154C19.5273 0 0 19.5273 0 43.6154V145.385C0 169.473 19.5273 189 43.6154 189H145.385C169.473 189 189 169.473 189 145.385V43.6154C189 19.5273 169.473 0 145.385 0Z" fill="url(#paint0_linear_268_35)"/>
<path d="M138.91 35.9816C140.398 33.5971 144.864 33.5136 146.626 35.4798C148.699 37.7931 150.895 40.0269 153.247 42.0543C155.467 43.9672 155.346 47.9807 153.329 49.8878C151.846 51.2895 150.48 52.8154 148.969 54.1852C146.925 56.0395 146.788 58.4043 148.163 60.5035C152.065 66.4602 154.678 72.9452 156.33 79.8244C157.196 83.4326 159.192 84.4382 162.422 84.5545C163.648 84.5986 164.887 84.6585 166.104 84.542C168.834 84.2805 171.24 84.7058 172.921 87.1072C173 91.8052 173 96.6022 173 101.542C172.852 101.695 172.608 101.651 172.568 101.721C171.458 103.665 169.756 104.23 167.581 104.17C165.256 104.106 162.923 104.333 160.595 104.446C158.189 104.562 156.912 106.178 156.466 108.189C155.136 114.18 152.908 119.798 149.964 125.16C149.242 126.473 148.426 127.74 147.774 129.086C146.744 131.212 147.054 132.557 148.692 134.23C150.503 136.079 152.418 137.855 154.017 139.875C155.617 141.896 155.208 144.611 153.384 146.43C151.253 148.555 148.964 150.547 147.024 152.833C145.046 155.164 140.977 155.195 138.896 152.904C140.851 150.762 142.839 148.708 144.844 146.672C147.368 144.11 147.372 141.478 144.832 138.94C143.566 137.676 142.287 136.425 141.031 135.153C138.626 132.715 138.306 130.656 140.109 127.738C144.371 120.836 147.034 113.315 148.794 105.474C150.073 99.7737 150 93.981 149.429 88.1759C148.825 82.0425 147.44 76.1014 145.009 70.4519C143.604 67.1866 141.858 64.0569 140.123 60.9446C138.598 58.208 138.78 55.8296 140.989 53.5849C142.315 52.2376 143.671 50.9198 145.005 49.5799C147.313 47.2614 147.309 44.5338 144.992 42.1761C142.988 40.1362 140.974 38.1058 138.91 35.9816Z" fill="#9C9C9C"/>
<path d="M87.2798 16C92.0997 16 96.9196 16 101.779 16.0703C101.981 16.3347 102.108 16.5877 102.314 16.7136C103.929 17.7033 104.594 19.1172 104.505 21.0087C104.415 22.9457 104.457 24.8907 104.492 26.8313C104.548 30.0338 106.273 31.8903 109.156 32.5861C115.697 34.1644 121.941 36.5029 127.66 40.1372C131.122 42.3377 132.703 42.3797 135.793 39.194C136.894 38.0594 138.056 36.9837 139.244 35.9711C141.306 38.1013 143.319 40.1373 145.321 42.183C147.636 44.5473 147.64 47.2825 145.334 49.6075C144.001 50.9512 142.646 52.2726 141.321 53.6238C139.114 55.8747 138.932 58.2598 140.456 61.0041C142.19 64.1251 143.934 67.2635 145.338 70.538C147.767 76.2033 149.151 82.1611 149.754 88.3116C150.325 94.133 150.398 99.9419 149.12 105.658C147.361 113.521 144.7 121.064 140.441 127.984C138.64 130.911 138.96 132.976 141.364 135.42C142.618 136.696 143.897 137.95 145.161 139.218C147.699 141.763 147.695 144.402 145.173 146.972C143.169 149.014 141.183 151.073 139.098 153.075C137.485 151.509 135.975 149.982 134.442 148.48C133.064 147.13 131.315 146.845 129.602 147.745C128.01 148.58 126.473 149.518 124.889 150.371C119.711 153.16 114.242 155.154 108.507 156.486C106.484 156.955 104.976 158.239 104.81 160.479C104.619 163.055 104.51 165.642 104.511 168.224C104.511 170.075 103.811 171.427 102.286 172.421C102.137 172.519 102.111 172.803 102.027 173C97.2075 173 92.3877 173 87.5278 172.929C85.3583 171.49 84.5453 169.566 84.7922 167.049C84.951 165.43 84.8848 163.779 84.8081 162.148C84.6701 159.21 83.424 157.101 80.2539 156.355C73.5122 154.769 67.1193 152.246 61.2266 148.51C58.4529 146.752 56.6708 146.449 53.9113 149.406C52.6558 150.75 51.2727 151.977 50.0185 153.323C48.0891 155.393 44.0627 155.51 42.1557 153.33C40.0729 150.95 37.6949 148.828 35.4613 146.577C33.8319 144.936 33.4387 142.028 34.9041 140.234C36.6359 138.114 38.6761 136.247 40.5392 134.231C41.6604 133.017 42.2092 131.564 41.4804 129.976C40.7564 128.399 39.8498 126.905 39.0219 125.375C36.1065 119.988 33.8567 114.364 32.5261 108.357C32.0811 106.348 30.798 104.718 28.3929 104.614C25.8068 104.502 23.2198 104.341 20.6329 104.337C18.8842 104.334 17.6487 103.583 16.6369 102.264C16.4932 102.077 16.2156 101.992 16 101.859C16 97.0489 16 92.2385 16.0713 87.3882C17.5146 85.2394 19.4199 84.3957 21.9493 84.6563C23.5704 84.8233 25.2296 84.7823 26.86 84.6677C30.2386 84.4302 31.7505 83.5608 32.5448 80.373C34.2832 73.3964 36.7729 66.7727 40.7352 60.7202C42.1708 58.5272 42.2431 56.1534 39.9538 54.138C38.421 52.7885 37.0517 51.2552 35.59 49.8238C33.5942 47.8696 33.6783 44.1865 35.1975 42.6756C37.6998 40.187 40.1713 37.6669 42.7028 35.2082C44.2529 33.7028 47.3587 33.5615 48.9513 34.9684C50.9324 36.7185 52.7937 38.6027 54.7354 40.3981C56.3496 41.8906 58.3718 42.1505 60.1068 41.0405C66.4115 37.007 73.2005 34.2038 80.4901 32.5124C82.6643 32.0079 84.3558 30.7223 84.5097 28.2263C84.6626 25.7467 84.7997 23.2612 84.7963 20.7785C84.7938 18.9278 85.4933 17.5746 87.018 16.5793C87.1678 16.4816 87.1955 16.1976 87.2798 16ZM80.6867 137.272C87.7136 139.599 94.8886 140.125 102.175 138.9C126.044 134.889 142.713 112.632 139.399 88.658C137.142 72.3341 128.194 60.5726 113.285 53.4336C111.37 52.5166 109.265 51.9953 107.053 51.164C101.627 49.65 96.1203 49.1344 90.4961 49.6516C67.6433 51.7533 49.852 70.7306 49.5827 93.6391C49.4134 108.039 55.0342 119.96 66.084 129.237C70.3451 132.815 75.1475 135.517 80.6867 137.272Z" fill="#9C9C9C"/>
<path d="M70.2 95.5465H119.8V117H70.2V95.5465Z" fill="#FFC400"/>
<path d="M120.058 78.54L119.8 101.825L112.824 97.9004L120.058 78.54Z" fill="#FFC400"/>
<path d="M69.9874 77.2324L70.2366 100.517L76.9624 96.5929L69.9874 77.2324Z" fill="#FFC400"/>
<path d="M95 77.7558L103.054 101.302H86.946L95 77.7558Z" fill="#FFC400"/>
<path d="M76.4 78.2791C76.4 81.7469 73.6242 84.5581 70.2 84.5581C66.7758 84.5581 64 81.7469 64 78.2791C64 74.8112 66.7758 72 70.2 72C73.6242 72 76.4 74.8112 76.4 78.2791Z" fill="#FFC400"/>
<path d="M126 78.2791C126 81.7469 123.224 84.5581 119.8 84.5581C116.376 84.5581 113.6 81.7469 113.6 78.2791C113.6 74.8112 116.376 72 119.8 72C123.224 72 126 74.8112 126 78.2791Z" fill="#FFC400"/>
<path d="M101.2 78.2791C101.2 81.7469 98.4242 84.5581 95 84.5581C91.5758 84.5581 88.8 81.7469 88.8 78.2791C88.8 74.8112 91.5758 72 95 72C98.4242 72 101.2 74.8112 101.2 78.2791Z" fill="#FFC400"/>
</g>
<defs>
<linearGradient id="paint0_linear_268_35" x1="94.5" y1="0" x2="94.5" y2="189" gradientUnits="userSpaceOnUse">
<stop stop-color="#302F30"/>
<stop offset="1" stop-color="#151314"/>
</linearGradient>
<clipPath id="clip0_268_35">
<rect width="189" height="189" fill="white"/>
</clipPath>
</defs>
</svg>
