<svg width="26" height="26" viewBox="0 0 26 26" fill="none" xmlns="http://www.w3.org/2000/svg">
<rect width="26" height="26" rx="6" fill="black"/>
<path d="M21.5 13C21.5 17.6944 17.6944 21.5 13 21.5C8.30558 21.5 4.5 17.6944 4.5 13C4.5 8.30558 8.30558 4.5 13 4.5C17.6944 4.5 21.5 8.30558 21.5 13ZM6.04945 13C6.04945 16.8387 9.16132 19.9506 13 19.9506C16.8387 19.9506 19.9506 16.8387 19.9506 13C19.9506 9.16132 16.8387 6.04945 13 6.04945C9.16132 6.04945 6.04945 9.16132 6.04945 13Z" fill="white"/>
<path d="M12.9415 6.00031C12.0223 6.00799 11.1136 6.19664 10.2673 6.5555C9.42095 6.91435 8.65361 7.43639 8.00904 8.09181C7.36448 8.74722 6.85532 9.52317 6.51064 10.3754C6.16596 11.2275 5.9925 12.1393 6.00017 13.0585C6.00784 13.9777 6.19649 14.8864 6.55535 15.7327C6.91421 16.579 7.43625 17.3464 8.09166 17.991C8.74708 18.6355 9.52303 19.1447 10.3752 19.4894C11.2274 19.834 12.1391 20.0075 13.0583 19.9998L13.028 16.3614C12.5866 16.3651 12.1487 16.2818 11.7395 16.1163C11.3303 15.9508 10.9577 15.7063 10.6429 15.3967C10.3282 15.0872 10.0775 14.7187 9.90519 14.3123C9.73286 13.9059 9.64227 13.4695 9.63858 13.0281C9.6349 12.5867 9.71819 12.1489 9.88371 11.7397C10.0492 11.3304 10.2937 10.9578 10.6033 10.6431C10.9128 10.3283 11.2813 10.0777 11.6877 9.90533C12.0941 9.733 12.5305 9.64241 12.9719 9.63873L12.9415 6.00031Z" fill="white"/>
<path d="M12.9889 16.3498C13.8773 16.3395 14.7252 15.9767 15.3461 15.3412C15.967 14.7056 16.31 13.8495 16.2997 12.9611C16.2894 12.0727 15.9265 11.2248 15.291 10.6039C14.6555 9.98297 13.7994 9.63995 12.911 9.65029L12.9499 13.0001L12.9889 16.3498Z" fill="white"/>
</svg>
