<svg width="20" height="20" viewBox="0 0 20 20" fill="none" xmlns="http://www.w3.org/2000/svg">
<rect width="20" height="20" rx="5" fill="url(#paint0_linear_203_48)"/>
<path d="M6.17178 4.20312C5.82178 4.20312 5.54834 4.4875 5.54834 4.8375V15.1297C5.54834 15.4797 5.82178 15.7641 6.17178 15.7641H13.8062C14.1562 15.7641 14.4296 15.4797 14.4296 15.1297V7.375H12.078C11.6077 7.375 11.1921 7.03594 11.1921 6.57656V4.20312H6.17178Z" fill="url(#paint1_linear_203_48)"/>
<path d="M11.6953 4.20312V6.57656C11.6953 6.7625 11.8703 6.9375 12.1437 6.9375H14.4844L11.6953 4.20312Z" fill="#5D5D5D"/>
<path d="M13.0625 8.79688H6.9375C6.81669 8.79688 6.71875 8.89481 6.71875 9.01562V9.23438C6.71875 9.35519 6.81669 9.45312 6.9375 9.45312H13.0625C13.1833 9.45312 13.2812 9.35519 13.2812 9.23438V9.01562C13.2812 8.89481 13.1833 8.79688 13.0625 8.79688Z" fill="white"/>
<path d="M13.0625 10.4375H6.9375C6.81669 10.4375 6.71875 10.5354 6.71875 10.6562V10.875C6.71875 10.9958 6.81669 11.0938 6.9375 11.0938H13.0625C13.1833 11.0938 13.2812 10.9958 13.2812 10.875V10.6562C13.2812 10.5354 13.1833 10.4375 13.0625 10.4375Z" fill="white"/>
<path d="M13.0625 12.0781H6.9375C6.81669 12.0781 6.71875 12.1761 6.71875 12.2969V12.5156C6.71875 12.6364 6.81669 12.7344 6.9375 12.7344H13.0625C13.1833 12.7344 13.2812 12.6364 13.2812 12.5156V12.2969C13.2812 12.1761 13.1833 12.0781 13.0625 12.0781Z" fill="white"/>
<path d="M9.125 13.8281H6.9375C6.81669 13.8281 6.71875 13.9261 6.71875 14.0469V14.2656C6.71875 14.3864 6.81669 14.4844 6.9375 14.4844H9.125C9.24581 14.4844 9.34375 14.3864 9.34375 14.2656V14.0469C9.34375 13.9261 9.24581 13.8281 9.125 13.8281Z" fill="white"/>
<defs>
<linearGradient id="paint0_linear_203_48" x1="10" y1="0" x2="10" y2="20" gradientUnits="userSpaceOnUse">
<stop stop-color="#BDBDC1"/>
<stop offset="1" stop-color="#98989D"/>
</linearGradient>
<linearGradient id="paint1_linear_203_48" x1="2.9999" y1="17" x2="16.9999" y2="3" gradientUnits="userSpaceOnUse">
<stop stop-color="#333333"/>
<stop offset="1" stop-color="#5D5D5D"/>
</linearGradient>
</defs>
</svg>
