<svg width="24" height="24" viewBox="0 0 24 24" fill="none" xmlns="http://www.w3.org/2000/svg">
<path d="M20 6C20 7.65685 16.4183 9 12 9C7.58172 9 4 7.65685 4 6C4 4.34315 7.58172 3 12 3C16.4183 3 20 4.34315 20 6Z" fill="currentColor"/>
<path d="M4 6V9C4 10.6569 7.58172 12 12 12C16.4183 12 20 10.6569 20 9V6C20 7.65685 16.4183 9 12 9C7.58172 9 4 7.65685 4 6Z" fill="currentColor"/>
<path d="M20 11V14C20 15.6569 16.4183 17 12 17C7.58172 17 4 15.6569 4 14V11C4 12.6569 7.58172 14 12 14C16.4183 14 20 12.6569 20 11Z" fill="currentColor"/>
<path d="M20 16V19C20 20.6569 16.4183 22 12 22C7.58172 22 4 20.6569 4 19V16C4 17.6569 7.58172 19 12 19C16.4183 19 20 17.6569 20 16Z" fill="currentColor"/>
</svg>
