<svg width="94" height="94" viewBox="0 0 94 94" fill="none" xmlns="http://www.w3.org/2000/svg">
<circle cx="47" cy="47" r="44" fill="white"/>
<path d="M47 0C72.9574 0 94 21.0426 94 47C94 58.3174 89.9985 68.6994 83.335 76.8115C75.1822 66.5682 62.6091 60 48.5 60C33.5581 60 20.336 67.3641 12.2656 78.6611C4.64692 70.3077 0 59.1968 0 47C0 21.0426 21.0426 0 47 0ZM46.5 23C37.9396 23 31 29.9396 31 38.5C31 47.0604 37.9396 54 46.5 54C55.0604 54 62 47.0604 62 38.5C62 29.9396 55.0604 23 46.5 23Z" fill="#D9D9D9"/>
<circle cx="47" cy="47" r="45" stroke="#D9D9D9" stroke-width="4"/>
</svg>
