<svg width="100" height="133" viewBox="0 0 100 133" fill="none" xmlns="http://www.w3.org/2000/svg">
<rect x="29" width="41" height="84" rx="20.5" fill="currentColor"/>
<path d="M4.32743e-06 62.5C3.17972e-06 75.6282 5.26784 88.2187 14.6447 97.5018C24.0215 106.785 36.7392 112 50 112C63.2608 112 75.9785 106.785 85.3553 97.5018C94.7322 88.2187 100 75.6282 100 62.5L84.57 62.5C84.57 71.5768 80.9278 80.2819 74.4447 86.7002C67.9615 93.1185 59.1685 96.7243 50 96.7243C40.8315 96.7243 32.0385 93.1185 25.5553 86.7002C19.0722 80.2819 15.43 71.5768 15.43 62.5L4.32743e-06 62.5Z" fill="currentColor"/>
<rect x="42" y="101" width="15" height="32" fill="currentColor"/>
</svg>
